<svg width="27" height="35" viewBox="0 0 27 35" fill="none" xmlns="http://www.w3.org/2000/svg">
<path d="M26.556 13.0561C26.556 9.53393 25.1746 6.23203 22.6662 3.75879C20.1583 1.28596 16.8377 -0.0472552 13.3117 0.00127995C9.98086 0.0484479 6.79545 1.42028 4.34217 3.8642C1.88876 6.30839 0.505025 9.48867 0.445962 12.8192C0.398248 15.5028 1.15875 18.0942 2.64536 20.3133C3.96715 22.2863 5.77581 23.8458 7.90479 24.8552V25.9917H7.74579C7.19078 25.9917 6.7407 26.4418 6.7407 26.9968V30.4958C6.7407 31.0508 7.19078 31.5009 7.74579 31.5009H8.58756V33.9948C8.58756 34.5498 9.03764 34.9998 9.59265 34.9998H17.4072C17.9622 34.9998 18.4123 34.5498 18.4123 33.9948V31.5009H19.2541C19.8091 31.5009 20.2592 31.0508 20.2592 30.4958V26.9968C20.2592 26.4418 19.8091 25.9917 19.2541 25.9917H19.0951V24.8554C23.6494 22.6986 26.556 18.1389 26.556 13.0561ZM16.4021 32.9899H10.5977V31.5011H16.4021V32.9899ZM18.2489 29.4908H17.4072H9.59265H8.75087V28.002H8.90988H18.0899H18.2489V29.4908ZM17.7069 23.2722C17.3305 23.4274 17.085 23.7943 17.085 24.2015V25.9918H14.505V20.5847L17.8979 15.8849C18.2227 15.4348 18.1213 14.8066 17.6713 14.4816C17.2213 14.1571 16.5931 14.2581 16.268 14.7083L13.4999 18.5426L10.7319 14.7083C10.407 14.2582 9.77879 14.1569 9.32865 14.4817C8.87857 14.8066 8.77712 15.4348 9.10204 15.885L12.4949 20.5848V25.9919H9.91503V24.2015C9.91503 23.7944 9.66949 23.4275 9.2931 23.2723C5.05817 21.5262 2.37452 17.4372 2.45593 12.855C2.55868 7.05877 7.5431 2.09308 13.3401 2.01125C16.3211 1.96812 19.1333 3.09803 21.255 5.19017C23.3772 7.28265 24.5459 10.0762 24.5459 13.0561C24.5459 17.5493 21.8615 21.5594 17.7069 23.2722Z" fill="white"/>
</svg>
